{
  "accessors": [
    {
      "bufferView": 2,
      "componentType": 5126,
      "count": 28354,
      "max": [
        0.05937929451465607,
        0.06703227758407593,
        0.15601833164691925
      ],
      "min": [
        -0.05937929451465607,
        -0.06703227758407593,
        -0.15601833164691925
      ],
      "type": "VEC3"
    },
    {
      "bufferView": 2,
      "byteOffset": 340248,
      "componentType": 5126,
      "count": 28354,
      "max": [
        0.9999660849571228,
        0.9999743103981018,
        0.9993274807929993
      ],
      "min": [
        -0.9999693632125854,
        -0.9999979138374329,
        -0.9997485280036926
      ],
      "type": "VEC3"
    },
    {
      "bufferView": 1,
      "componentType": 5126,
      "count": 28354,
      "max": [
        0.9991634488105774,
        0.9999892115592957
      ],
      "min": [
        1.0489524356671609e-05,
        2.179745933972299e-05
      ],
      "type": "VEC2"
    },
    {
      "bufferView": 1,
      "byteOffset": 226832,
      "componentType": 5126,
      "count": 28354,
      "max": [
        0.9991634488105774,
        0.9999892115592957
      ],
      "min": [
        1.0489524356671609e-05,
        2.179745933972299e-05
      ],
      "type": "VEC2"
    },
    {
      "bufferView": 1,
      "byteOffset": 453664,
      "componentType": 5126,
      "count": 28354,
      "max": [
        0.9991634488105774,
        0.9999892115592957
      ],
      "min": [
        1.0489524356671609e-05,
        2.179745933972299e-05
      ],
      "type": "VEC2"
    },
    {
      "bufferView": 0,
      "componentType": 5125,
      "count": 150000,
      "type": "SCALAR"
    }
  ],
  "asset": {
    "extras": {
      "author": "CookieCake (https://sketchfab.com/cookiecake250)",
      "license": "CC-BY-NC-SA-4.0 (http://creativecommons.org/licenses/by-nc-sa/4.0/)",
      "source": "https://sketchfab.com/3d-models/nike-defy-all-day-walking-sneakers-shoes-b404398cf8ab4773b4b15230a2f7c292",
      "title": "Nike Defy All Day walking sneakers shoes"
    },
    "generator": "Sketchfab-15.36.0",
    "version": "2.0"
  },
  "bufferViews": [
    {
      "buffer": 0,
      "byteLength": 600000,
      "name": "floatBufferViews",
      "target": 34963
    },
    {
      "buffer": 0,
      "byteLength": 680496,
      "byteOffset": 600000,
      "byteStride": 8,
      "name": "floatBufferViews",
      "target": 34962
    },
    {
      "buffer": 0,
      "byteLength": 680496,
      "byteOffset": 1280496,
      "byteStride": 12,
      "name": "floatBufferViews",
      "target": 34962
    }
  ],
  "buffers": [
    {
      "byteLength": 1960992,
      "uri": "scene.bin"
    }
  ],
  "extensionsUsed": [
    "KHR_materials_unlit"
  ],
  "images": [
    {
      "uri": "textures/material_0_baseColor.jpeg"
    }
  ],
  "materials": [
    {
      "extensions": {
        "KHR_materials_unlit": {}
      },
      "name": "material_0",
      "pbrMetallicRoughness": {
        "baseColorTexture": {
          "index": 0
        },
        "metallicFactor": 0.0
      }
    }
  ],
  "meshes": [
    {
      "name": "Object_0",
      "primitives": [
        {
          "attributes": {
            "NORMAL": 1,
            "POSITION": 0,
            "TEXCOORD_0": 2,
            "TEXCOORD_1": 3,
            "TEXCOORD_2": 4
          },
          "indices": 5,
          "material": 0,
          "mode": 4
        }
      ]
    }
  ],
  "nodes": [
    {
      "children": [
        1
      ],
      "matrix": [
        1.0,
        0.0,
        0.0,
        0.0,
        0.0,
        2.220446049250313e-16,
        -1.0,
        0.0,
        0.0,
        1.0,
        2.220446049250313e-16,
        0.0,
        0.0,
        0.0,
        0.0,
        1.0
      ],
      "name": "Sketchfab_model"
    },
    {
      "children": [
        2
      ],
      "name": "root"
    },
    {
      "children": [
        3
      ],
      "matrix": [
        1.0,
        0.0,
        0.0,
        0.0,
        0.0,
        2.220446049250313e-16,
        1.0,
        0.0,
        0.0,
        -1.0,
        2.220446049250313e-16,
        0.0,
        0.0,
        0.0,
        0.0,
        1.0
      ],
      "name": "GLTF_SceneRootNode"
    },
    {
      "children": [
        4
      ],
      "name": "_0"
    },
    {
      "mesh": 0,
      "name": "Object_4"
    }
  ],
  "samplers": [
    {
      "magFilter": 9729,
      "minFilter": 9987,
      "wrapS": 10497,
      "wrapT": 10497
    }
  ],
  "scene": 0,
  "scenes": [
    {
      "name": "Sketchfab_Scene",
      "nodes": [
        0
      ]
    }
  ],
  "textures": [
    {
      "sampler": 0,
      "source": 0
    }
  ]
}
