{
  "accessors": [
    {
      "bufferView": 2,
      "componentType": 5126,
      "count": 55570,
      "max": [
        0.06374356150627136,
        0.08163183927536011,
        0.16068227589130402
      ],
      "min": [
        -0.06374356150627136,
        -0.08163183927536011,
        -0.16068227589130402
      ],
      "type": "VEC3"
    },
    {
      "bufferView": 2,
      "byteOffset": 666840,
      "componentType": 5126,
      "count": 55570,
      "max": [
        0.9999619126319885,
        0.9999993443489075,
        0.9999479055404663
      ],
      "min": [
        -0.9999839663505554,
        -0.9999954104423523,
        -0.9999942183494568
      ],
      "type": "VEC3"
    },
    {
      "bufferView": 1,
      "componentType": 5126,
      "count": 55570,
      "max": [
        0.9994319677352905,
        0.9999474287033081
      ],
      "min": [
        1.1322898899379652e-05,
        2.384796789556276e-05
      ],
      "type": "VEC2"
    },
    {
      "bufferView": 1,
      "byteOffset": 444560,
      "componentType": 5126,
      "count": 55570,
      "max": [
        0.9994319677352905,
        0.9999474287033081
      ],
      "min": [
        1.1322898899379652e-05,
        2.384796789556276e-05
      ],
      "type": "VEC2"
    },
    {
      "bufferView": 1,
      "byteOffset": 889120,
      "componentType": 5126,
      "count": 55570,
      "max": [
        0.9994319677352905,
        0.9999474287033081
      ],
      "min": [
        1.1322898899379652e-05,
        2.384796789556276e-05
      ],
      "type": "VEC2"
    },
    {
      "bufferView": 1,
      "byteOffset": 1333680,
      "componentType": 5126,
      "count": 55570,
      "max": [
        0.9994319677352905,
        0.9999474287033081
      ],
      "min": [
        1.1322898899379652e-05,
        2.384796789556276e-05
      ],
      "type": "VEC2"
    },
    {
      "bufferView": 1,
      "byteOffset": 1778240,
      "componentType": 5126,
      "count": 55570,
      "max": [
        0.9994319677352905,
        0.9999474287033081
      ],
      "min": [
        1.1322898899379652e-05,
        2.384796789556276e-05
      ],
      "type": "VEC2"
    },
    {
      "bufferView": 0,
      "componentType": 5125,
      "count": 300000,
      "type": "SCALAR"
    }
  ],
  "asset": {
    "extras": {
      "author": "CookieCake (https://sketchfab.com/cookiecake250)",
      "license": "CC-BY-NC-SA-4.0 (http://creativecommons.org/licenses/by-nc-sa/4.0/)",
      "source": "https://sketchfab.com/3d-models/converse-shoes-562be2471d5b45e8a6946fbbcc7c0f04",
      "title": "Converse Shoes"
    },
    "generator": "Sketchfab-15.34.0",
    "version": "2.0"
  },
  "bufferViews": [
    {
      "buffer": 0,
      "byteLength": 1200000,
      "name": "floatBufferViews",
      "target": 34963
    },
    {
      "buffer": 0,
      "byteLength": 2222800,
      "byteOffset": 1200000,
      "byteStride": 8,
      "name": "floatBufferViews",
      "target": 34962
    },
    {
      "buffer": 0,
      "byteLength": 1333680,
      "byteOffset": 3422800,
      "byteStride": 12,
      "name": "floatBufferViews",
      "target": 34962
    }
  ],
  "buffers": [
    {
      "byteLength": 4756480,
      "uri": "scene.bin"
    }
  ],
  "extensionsUsed": [
    "KHR_materials_unlit"
  ],
  "images": [
    {
      "uri": "textures/material_0_baseColor.jpeg"
    }
  ],
  "materials": [
    {
      "extensions": {
        "KHR_materials_unlit": {}
      },
      "name": "material_0",
      "pbrMetallicRoughness": {
        "baseColorTexture": {
          "index": 0
        },
        "metallicFactor": 0.0
      }
    }
  ],
  "meshes": [
    {
      "name": "Object_0",
      "primitives": [
        {
          "attributes": {
            "NORMAL": 1,
            "POSITION": 0,
            "TEXCOORD_0": 2,
            "TEXCOORD_1": 3,
            "TEXCOORD_2": 4,
            "TEXCOORD_3": 5,
            "TEXCOORD_4": 6
          },
          "indices": 7,
          "material": 0,
          "mode": 4
        }
      ]
    }
  ],
  "nodes": [
    {
      "children": [
        1
      ],
      "matrix": [
        1.0,
        0.0,
        0.0,
        0.0,
        0.0,
        2.220446049250313e-16,
        -1.0,
        0.0,
        0.0,
        1.0,
        2.220446049250313e-16,
        0.0,
        0.0,
        0.0,
        0.0,
        1.0
      ],
      "name": "Sketchfab_model"
    },
    {
      "children": [
        2
      ],
      "name": "root"
    },
    {
      "children": [
        3
      ],
      "matrix": [
        1.0,
        0.0,
        0.0,
        0.0,
        0.0,
        2.220446049250313e-16,
        1.0,
        0.0,
        0.0,
        -1.0,
        2.220446049250313e-16,
        0.0,
        0.0,
        0.0,
        0.0,
        1.0
      ],
      "name": "GLTF_SceneRootNode"
    },
    {
      "children": [
        4
      ],
      "name": "_0"
    },
    {
      "mesh": 0,
      "name": "Object_4"
    }
  ],
  "samplers": [
    {
      "magFilter": 9729,
      "minFilter": 9987,
      "wrapS": 10497,
      "wrapT": 10497
    }
  ],
  "scene": 0,
  "scenes": [
    {
      "name": "Sketchfab_Scene",
      "nodes": [
        0
      ]
    }
  ],
  "textures": [
    {
      "sampler": 0,
      "source": 0
    }
  ]
}
