{
  "accessors": [
    {
      "bufferView": 2,
      "componentType": 5126,
      "count": 65532,
      "max": [
        0.5937950015068054,
        0.3148230016231537,
        0.2584039866924286
      ],
      "min": [
        0.0,
        0.0,
        0.0
      ],
      "type": "VEC3"
    },
    {
      "bufferView": 2,
      "byteOffset": 786384,
      "componentType": 5126,
      "count": 65532,
      "max": [
        0.9999170303344727,
        0.9999907612800598,
        0.9999005794525146
      ],
      "min": [
        -0.9999229907989502,
        -0.9999593496322632,
        -0.9999996423721313
      ],
      "type": "VEC3"
    },
    {
      "bufferView": 3,
      "componentType": 5126,
      "count": 65532,
      "max": [
        0.999935507774353,
        0.9999437928199768,
        0.9999995231628418,
        1.0
      ],
      "min": [
        -0.9997852444648743,
        -0.9998974204063416,
        -0.9999544024467468,
        1.0
      ],
      "type": "VEC4"
    },
    {
      "bufferView": 1,
      "componentType": 5126,
      "count": 65532,
      "max": [
        0.9919189810752869,
        0.9948970079421997
      ],
      "min": [
        0.010250399820506573,
        0.009918009862303734
      ],
      "type": "VEC2"
    },
    {
      "bufferView": 0,
      "componentType": 5125,
      "count": 351009,
      "type": "SCALAR"
    },
    {
      "bufferView": 2,
      "byteOffset": 1572768,
      "componentType": 5126,
      "count": 29797,
      "max": [
        0.5939149856567383,
        0.31465399265289307,
        0.2584039866924286
      ],
      "min": [
        0.131166011095047,
        0.0057040005922317505,
        0.0
      ],
      "type": "VEC3"
    },
    {
      "bufferView": 2,
      "byteOffset": 1930332,
      "componentType": 5126,
      "count": 29797,
      "max": [
        0.999984860420227,
        0.9998422265052795,
        0.9999410510063171
      ],
      "min": [
        -0.9992585182189941,
        -0.9997796416282654,
        -0.9999977946281433
      ],
      "type": "VEC3"
    },
    {
      "bufferView": 3,
      "byteOffset": 1048512,
      "componentType": 5126,
      "count": 29797,
      "max": [
        0.999992847442627,
        0.9998555183410645,
        0.9999945759773254,
        1.0
      ],
      "min": [
        -0.9997548460960388,
        -0.9998051524162292,
        -0.99997878074646,
        1.0
      ],
      "type": "VEC4"
    },
    {
      "bufferView": 1,
      "byteOffset": 524256,
      "componentType": 5126,
      "count": 29797,
      "max": [
        0.9921650290489197,
        0.9957669973373413
      ],
      "min": [
        0.003900340059772134,
        0.00792711041867733
      ],
      "type": "VEC2"
    },
    {
      "bufferView": 0,
      "byteOffset": 1404036,
      "componentType": 5125,
      "count": 128694,
      "type": "SCALAR"
    }
  ],
  "asset": {
    "extras": {
      "author": "3Digify (https://sketchfab.com/3digify)",
      "license": "CC-BY-4.0 (http://creativecommons.org/licenses/by/4.0/)",
      "source": "https://sketchfab.com/3d-models/scanned-adidas-sports-shoe-17f21b0a2515455f96ad194ad5be9142",
      "title": "Scanned Adidas Sports Shoe"
    },
    "generator": "Sketchfab-12.66.0",
    "version": "2.0"
  },
  "bufferViews": [
    {
      "buffer": 0,
      "byteLength": 1918812,
      "name": "floatBufferViews",
      "target": 34963
    },
    {
      "buffer": 0,
      "byteLength": 762632,
      "byteOffset": 1918812,
      "byteStride": 8,
      "name": "floatBufferViews",
      "target": 34962
    },
    {
      "buffer": 0,
      "byteLength": 2287896,
      "byteOffset": 2681444,
      "byteStride": 12,
      "name": "floatBufferViews",
      "target": 34962
    },
    {
      "buffer": 0,
      "byteLength": 1525264,
      "byteOffset": 4969340,
      "byteStride": 16,
      "name": "floatBufferViews",
      "target": 34962
    }
  ],
  "buffers": [
    {
      "byteLength": 6494604,
      "uri": "scene.bin"
    }
  ],
  "images": [
    {
      "uri": "textures/Textured_baseColor.jpeg"
    },
    {
      "uri": "textures/Textured_metallicRoughness.png"
    },
    {
      "uri": "textures/Textured_normal.jpeg"
    }
  ],
  "materials": [
    {
      "name": "Textured",
      "normalTexture": {
        "index": 2
      },
      "pbrMetallicRoughness": {
        "baseColorTexture": {
          "index": 0
        },
        "metallicRoughnessTexture": {
          "index": 1
        },
        "roughnessFactor": 0.55
      }
    }
  ],
  "meshes": [
    {
      "name": "Object_0",
      "primitives": [
        {
          "attributes": {
            "NORMAL": 1,
            "POSITION": 0,
            "TANGENT": 2,
            "TEXCOORD_0": 3
          },
          "indices": 4,
          "material": 0,
          "mode": 4
        }
      ]
    },
    {
      "name": "Object_1",
      "primitives": [
        {
          "attributes": {
            "NORMAL": 6,
            "POSITION": 5,
            "TANGENT": 7,
            "TEXCOORD_0": 8
          },
          "indices": 9,
          "material": 0,
          "mode": 4
        }
      ]
    }
  ],
  "nodes": [
    {
      "children": [
        1
      ],
      "matrix": [
        1.0,
        0.0,
        0.0,
        0.0,
        0.0,
        2.220446049250313e-16,
        -1.0,
        0.0,
        0.0,
        1.0,
        2.220446049250313e-16,
        0.0,
        0.0,
        0.0,
        0.0,
        1.0
      ],
      "name": "Sketchfab_model"
    },
    {
      "children": [
        2,
        3
      ],
      "matrix": [
        1.0,
        0.0,
        0.0,
        0.0,
        0.0,
        1.0,
        0.0,
        0.0,
        0.0,
        0.0,
        1.0,
        0.0,
        -0.3349420130252838,
        -0.16906900703907013,
        -0.10584499686956406,
        1.0
      ],
      "name": "Mesh.obj.cleaner.gles"
    },
    {
      "mesh": 0,
      "name": "Object_2"
    },
    {
      "mesh": 1,
      "name": "Object_3"
    }
  ],
  "samplers": [
    {
      "magFilter": 9729,
      "minFilter": 9987,
      "wrapS": 10497,
      "wrapT": 10497
    }
  ],
  "scene": 0,
  "scenes": [
    {
      "name": "Sketchfab_Scene",
      "nodes": [
        0
      ]
    }
  ],
  "textures": [
    {
      "sampler": 0,
      "source": 0
    },
    {
      "sampler": 0,
      "source": 1
    },
    {
      "sampler": 0,
      "source": 2
    }
  ]
}
