{
  "accessors": [
    {
      "bufferView": 2,
      "componentType": 5126,
      "count": 38984,
      "max": [
        0.35644200444221497,
        0.4501529932022095,
        1.0
      ],
      "min": [
        -0.35644200444221497,
        -0.4501529932022095,
        -1.0
      ],
      "type": "VEC3"
    },
    {
      "bufferView": 2,
      "byteOffset": 467808,
      "componentType": 5126,
      "count": 38984,
      "max": [
        0.9999931454658508,
        1.0,
        0.9997193813323975
      ],
      "min": [
        -0.9999973773956299,
        -0.999997615814209,
        -0.9999707341194153
      ],
      "type": "VEC3"
    },
    {
      "bufferView": 3,
      "componentType": 5126,
      "count": 38984,
      "max": [
        0.9999868273735046,
        0.99940025806427,
        1.0,
        1.0
      ],
      "min": [
        -0.9999668002128601,
        -0.9998496770858765,
        -0.9999927878379822,
        -1.0
      ],
      "type": "VEC4"
    },
    {
      "bufferView": 1,
      "componentType": 5126,
      "count": 38984,
      "max": [
        0.9990839958190918,
        0.9988399744033813
      ],
      "min": [
        0.0030162299517542124,
        0.0015825099544599652
      ],
      "type": "VEC2"
    },
    {
      "bufferView": 0,
      "componentType": 5125,
      "count": 213255,
      "type": "SCALAR"
    }
  ],
  "asset": {
    "extras": {
      "author": "quaz30 (https://sketchfab.com/quaz30)",
      "license": "CC-BY-4.0 (http://creativecommons.org/licenses/by/4.0/)",
      "source": "https://sketchfab.com/3d-models/nike-air-zoom-pegasus-36-00fd99e778c244c3bd3b65f99dad7cb2",
      "title": "Nike Air Zoom Pegasus 36"
    },
    "generator": "Sketchfab-12.68.0",
    "version": "2.0"
  },
  "bufferViews": [
    {
      "buffer": 0,
      "byteLength": 853020,
      "name": "floatBufferViews",
      "target": 34963
    },
    {
      "buffer": 0,
      "byteLength": 311872,
      "byteOffset": 853020,
      "byteStride": 8,
      "name": "floatBufferViews",
      "target": 34962
    },
    {
      "buffer": 0,
      "byteLength": 935616,
      "byteOffset": 1164892,
      "byteStride": 12,
      "name": "floatBufferViews",
      "target": 34962
    },
    {
      "buffer": 0,
      "byteLength": 623744,
      "byteOffset": 2100508,
      "byteStride": 16,
      "name": "floatBufferViews",
      "target": 34962
    }
  ],
  "buffers": [
    {
      "byteLength": 2724252,
      "uri": "scene.bin"
    }
  ],
  "images": [
    {
      "uri": "textures/NikeShoe_baseColor.jpeg"
    },
    {
      "uri": "textures/NikeShoe_metallicRoughness.png"
    },
    {
      "uri": "textures/NikeShoe_normal.png"
    }
  ],
  "materials": [
    {
      "doubleSided": true,
      "name": "NikeShoe",
      "normalTexture": {
        "index": 2
      },
      "occlusionTexture": {
        "index": 1
      },
      "pbrMetallicRoughness": {
        "baseColorTexture": {
          "index": 0
        },
        "metallicRoughnessTexture": {
          "index": 1
        }
      }
    }
  ],
  "meshes": [
    {
      "name": "defaultMaterial",
      "primitives": [
        {
          "attributes": {
            "NORMAL": 1,
            "POSITION": 0,
            "TANGENT": 2,
            "TEXCOORD_0": 3
          },
          "indices": 4,
          "material": 0,
          "mode": 4
        }
      ]
    }
  ],
  "nodes": [
    {
      "children": [
        1
      ],
      "matrix": [
        1.0,
        0.0,
        0.0,
        0.0,
        0.0,
        2.220446049250313e-16,
        -1.0,
        0.0,
        0.0,
        1.0,
        2.220446049250313e-16,
        0.0,
        0.0,
        0.0,
        0.0,
        1.0
      ],
      "name": "Sketchfab_model"
    },
    {
      "children": [
        2
      ],
      "matrix": [
        1.0,
        0.0,
        0.0,
        0.0,
        0.0,
        -4.371139006309477e-08,
        0.999999999999999,
        0.0,
        0.0,
        -0.999999999999999,
        -4.371139006309477e-08,
        0.0,
        0.0,
        0.0,
        0.0,
        1.0
      ],
      "name": "Collada visual scene group"
    },
    {
      "children": [
        3
      ],
      "name": "shoe"
    },
    {
      "mesh": 0,
      "name": "defaultMaterial"
    }
  ],
  "samplers": [
    {
      "magFilter": 9729,
      "minFilter": 9987,
      "wrapS": 10497,
      "wrapT": 10497
    }
  ],
  "scene": 0,
  "scenes": [
    {
      "name": "Sketchfab_Scene",
      "nodes": [
        0
      ]
    }
  ],
  "textures": [
    {
      "sampler": 0,
      "source": 0
    },
    {
      "sampler": 0,
      "source": 1
    },
    {
      "sampler": 0,
      "source": 2
    }
  ]
}
